<svg width="41" height="32" viewBox="0 0 41 32" fill="none" xmlns="http://www.w3.org/2000/svg">
<path d="M2 23.0938L11.6731 13.4206C12.0649 13.0289 12.5299 12.7181 13.0418 12.5061C13.5536 12.2941 14.1022 12.185 14.6562 12.185C15.2103 12.185 15.7589 12.2941 16.2707 12.5061C16.7826 12.7181 17.2476 13.0289 17.6394 13.4206L27.3125 23.0938M24.5 20.2812L27.1419 17.6394C27.5336 17.2476 27.9987 16.9369 28.5105 16.7249C29.0224 16.5128 29.571 16.4037 30.125 16.4037C30.679 16.4037 31.2276 16.5128 31.7395 16.7249C32.2513 16.9369 32.7164 17.2476 33.1081 17.6394L38.5625 23.0938M4.8125 30.125H35.75C36.4959 30.125 37.2113 29.8287 37.7387 29.3012C38.2662 28.7738 38.5625 28.0584 38.5625 27.3125V4.8125C38.5625 4.06658 38.2662 3.35121 37.7387 2.82376C37.2113 2.29632 36.4959 2 35.75 2H4.8125C4.06658 2 3.35121 2.29632 2.82376 2.82376C2.29632 3.35121 2 4.06658 2 4.8125V27.3125C2 28.0584 2.29632 28.7738 2.82376 29.3012C3.35121 29.8287 4.06658 30.125 4.8125 30.125ZM24.5 9.03125H24.515V9.04625H24.5V9.03125ZM25.2031 9.03125C25.2031 9.21773 25.129 9.39657 24.9972 9.52843C24.8653 9.6603 24.6865 9.73438 24.5 9.73438C24.3135 9.73438 24.1347 9.6603 24.0028 9.52843C23.871 9.39657 23.7969 9.21773 23.7969 9.03125C23.7969 8.84477 23.871 8.66593 24.0028 8.53407C24.1347 8.4022 24.3135 8.32812 24.5 8.32812C24.6865 8.32812 24.8653 8.4022 24.9972 8.53407C25.129 8.66593 25.2031 8.84477 25.2031 9.03125Z" stroke="#ED6363" stroke-width="3" stroke-linecap="round" stroke-linejoin="round"/>
</svg>
