<svg width="41" height="33" viewBox="0 0 41 33" fill="none" xmlns="http://www.w3.org/2000/svg">
<path d="M2.21875 23.5312L11.8919 13.8581C12.2836 13.4664 12.7487 13.1556 13.2605 12.9436C13.7724 12.7316 14.321 12.6225 14.875 12.6225C15.429 12.6225 15.9776 12.7316 16.4895 12.9436C17.0013 13.1556 17.4664 13.4664 17.8581 13.8581L27.5312 23.5312M24.7188 20.7188L27.3606 18.0769C27.7524 17.6851 28.2174 17.3744 28.7293 17.1624C29.2411 16.9503 29.7897 16.8412 30.3437 16.8412C30.8978 16.8412 31.4464 16.9503 31.9582 17.1624C32.47 17.3744 32.9351 17.6851 33.3269 18.0769L38.7812 23.5312M5.03125 30.5625H35.9688C36.7147 30.5625 37.43 30.2662 37.9575 29.7387C38.4849 29.2113 38.7812 28.4959 38.7812 27.75V5.25C38.7812 4.50408 38.4849 3.78871 37.9575 3.26126C37.43 2.73382 36.7147 2.4375 35.9688 2.4375H5.03125C4.28533 2.4375 3.56996 2.73382 3.04251 3.26126C2.51507 3.78871 2.21875 4.50408 2.21875 5.25V27.75C2.21875 28.4959 2.51507 29.2113 3.04251 29.7387C3.56996 30.2662 4.28533 30.5625 5.03125 30.5625ZM24.7188 9.46875H24.7337V9.48375H24.7188V9.46875ZM25.4219 9.46875C25.4219 9.65523 25.3478 9.83407 25.2159 9.96593C25.0841 10.0978 24.9052 10.1719 24.7188 10.1719C24.5323 10.1719 24.3534 10.0978 24.2216 9.96593C24.0897 9.83407 24.0156 9.65523 24.0156 9.46875C24.0156 9.28227 24.0897 9.10343 24.2216 8.97157C24.3534 8.8397 24.5323 8.76562 24.7188 8.76562C24.9052 8.76562 25.0841 8.8397 25.2159 8.97157C25.3478 9.10343 25.4219 9.28227 25.4219 9.46875Z" stroke="#F0E262" stroke-width="3" stroke-linecap="round" stroke-linejoin="round"/>
</svg>
