<svg width="38" height="38" viewBox="0 0 38 38" fill="none" xmlns="http://www.w3.org/2000/svg">
<path d="M2 20.9844C2 19.82 2.945 18.875 4.10938 18.875H8.32812C9.4925 18.875 10.4375 19.82 10.4375 20.9844V33.6406C10.4375 34.805 9.4925 35.75 8.32812 35.75H4.10938C3.54993 35.75 3.01341 35.5278 2.61782 35.1322C2.22224 34.7366 2 34.2001 2 33.6406V20.9844ZM14.6562 12.5469C14.6562 11.3825 15.6013 10.4375 16.7656 10.4375H20.9844C22.1487 10.4375 23.0938 11.3825 23.0938 12.5469V33.6406C23.0938 34.805 22.1487 35.75 20.9844 35.75H16.7656C16.2062 35.75 15.6697 35.5278 15.2741 35.1322C14.8785 34.7366 14.6562 34.2001 14.6562 33.6406V12.5469ZM27.3125 4.10938C27.3125 2.945 28.2575 2 29.4219 2H33.6406C34.805 2 35.75 2.945 35.75 4.10938V33.6406C35.75 34.805 34.805 35.75 33.6406 35.75H29.4219C28.8624 35.75 28.3259 35.5278 27.9303 35.1322C27.5347 34.7366 27.3125 34.2001 27.3125 33.6406V4.10938Z" stroke="#ED6363" stroke-width="3" stroke-linecap="round" stroke-linejoin="round"/>
</svg>
