<svg width="37" height="37" viewBox="0 0 37 37" fill="none" xmlns="http://www.w3.org/2000/svg">
<path d="M1.625 20.6094C1.625 19.445 2.57 18.5 3.73438 18.5H7.95312C9.1175 18.5 10.0625 19.445 10.0625 20.6094V33.2656C10.0625 34.43 9.1175 35.375 7.95312 35.375H3.73438C3.17493 35.375 2.63841 35.1528 2.24282 34.7572C1.84724 34.3616 1.625 33.8251 1.625 33.2656V20.6094ZM14.2812 12.1719C14.2812 11.0075 15.2263 10.0625 16.3906 10.0625H20.6094C21.7737 10.0625 22.7188 11.0075 22.7188 12.1719V33.2656C22.7188 34.43 21.7737 35.375 20.6094 35.375H16.3906C15.8312 35.375 15.2947 35.1528 14.8991 34.7572C14.5035 34.3616 14.2812 33.8251 14.2812 33.2656V12.1719ZM26.9375 3.73438C26.9375 2.57 27.8825 1.625 29.0469 1.625H33.2656C34.43 1.625 35.375 2.57 35.375 3.73438V33.2656C35.375 34.43 34.43 35.375 33.2656 35.375H29.0469C28.4874 35.375 27.9509 35.1528 27.5553 34.7572C27.1597 34.3616 26.9375 33.8251 26.9375 33.2656V3.73438Z" stroke="#F0E262" stroke-width="3" stroke-linecap="round" stroke-linejoin="round"/>
</svg>
